<svg xmlns="http://www.w3.org/2000/svg" viewBox="0 0 454.8 413.94"><defs><style>.cls-1{fill:#f5f5f5;}.cls-2{fill:#e0e0e0;}.cls-3{fill:#263238;}.cls-4{fill:#332d2d;}.cls-5{fill:#ff725e;}.cls-6{opacity:0.4;}.cls-7{opacity:0.2;}.cls-8{fill:#fafafa;}.cls-9{fill:#1c1717;}.cls-10{fill:#fff;}.cls-11{fill:#ffbf9d;}.cls-12{fill:#ff9a6c;}.cls-13{fill:#455a64;}.cls-14{opacity:0.3;}</style></defs><g id="Device"><rect class="cls-1" x="309.18" y="230.84" width="108.18" height="61.27" rx="17.23" transform="translate(726.53 522.96) rotate(180)"/><path class="cls-1" d="M326.55,287.56h13.69l.62,1.51S339,301.85,322.58,304.5C322.58,304.5,329.72,296.29,326.55,287.56Z"/><path class="cls-2" d="M359.91,254.43v17.64h-5v-6.88h-6.8v6.88h-5V254.43h5v6.63h6.8v-6.63Z"/><path class="cls-2" d="M377.1,266.45h-9.93a3.14,3.14,0,0,0,3.35,2.19,4.36,4.36,0,0,0,3.15-1.18l2.52,2.62a7.4,7.4,0,0,1-5.82,2.22c-4.87,0-8-3-8-7.08s3.2-7,7.51-7c4,0,7.31,2.57,7.31,7.09C377.17,265.62,377.12,266.07,377.1,266.45Zm-10-2.52h5.6a2.85,2.85,0,0,0-5.6,0Z"/><path class="cls-2" d="M375.48,276.48l1.21-3.4a2.91,2.91,0,0,0,1.49.4c.83,0,1.41-.55,1.41-1.79V258.41h4.79v13.31c0,3.33-2,5.47-5.57,5.47A7,7,0,0,1,375.48,276.48Zm3.58-22.13a2.64,2.64,0,0,1,2.93-2.54c1.76,0,2.92,1,2.92,2.46a2.95,2.95,0,0,1-5.85.08Z"/><rect class="cls-1" x="312.14" width="82.87" height="46.94" rx="17.23" transform="translate(707.15 46.94) rotate(180)"/><path class="cls-1" d="M325.45,43.45h10.49l.48,1.16s-1.44,9.78-14,11.81C322.41,56.42,327.88,50.14,325.45,43.45Z"/><path class="cls-1" d="M312,128.07h16.29l.75,1.8s-2.24,15.2-21.76,18.35C307.24,148.22,315.74,138.46,312,128.07Z"/><rect class="cls-1" x="286.23" y="80.19" width="134.69" height="56.09" rx="13.55" transform="translate(707.15 216.47) rotate(180)"/><path class="cls-2" d="M323.15,113.37c0,2.79-2.3,4.42-6.64,4.42h-8.72V101.64h8.26c4.24,0,6.32,1.74,6.32,4.23a3.8,3.8,0,0,1-2.17,3.5A4.08,4.08,0,0,1,323.15,113.37Zm-10.84-8.43v3.12h3.14c1.52,0,2.31-.53,2.31-1.57s-.79-1.55-2.31-1.55Zm6.23,7.92c0-1.11-.83-1.64-2.4-1.64h-3.83v3.28h3.83C317.71,114.5,318.54,114,318.54,112.86Z"/><path class="cls-2" d="M324.54,111.52c0-3.76,3-6.44,7.06-6.44s7.06,2.68,7.06,6.44S335.73,118,331.6,118,324.54,115.3,324.54,111.52Zm9.69,0a2.65,2.65,0,1,0-5.26,0c0,1.91,1.15,3,2.63,3S334.23,113.43,334.23,111.52Z"/><path class="cls-2" d="M354,110.64v7.15h-4.39v-6.43c0-1.8-.78-2.56-2.05-2.56s-2.49.87-2.49,3v6h-4.39v-12.5h4.18v1.36a5.36,5.36,0,0,1,4-1.57C351.77,105.08,354,106.77,354,110.64Z"/><path class="cls-2" d="M353.18,121.83l1.1-3.11a2.64,2.64,0,0,0,1.37.37c.76,0,1.29-.51,1.29-1.64V105.29h4.38v12.18c0,3-1.87,5-5.1,5A6.36,6.36,0,0,1,353.18,121.83Zm3.27-20.25a2.42,2.42,0,0,1,2.68-2.33c1.61,0,2.68.94,2.68,2.26a2.7,2.7,0,0,1-5.36.07Z"/><path class="cls-2" d="M363.35,111.52c0-3.76,3-6.44,7.06-6.44s7.06,2.68,7.06,6.44-2.93,6.48-7.06,6.48S363.35,115.3,363.35,111.52Zm9.69,0a2.65,2.65,0,1,0-5.26,0c0,1.91,1.16,3,2.63,3S373,113.43,373,111.52Z"/><path class="cls-2" d="M392.66,105.29v12.5h-4.18v-1.33a4.91,4.91,0,0,1-3.71,1.54c-3.07,0-5.31-1.75-5.31-5.72v-7h4.38v6.28c0,1.93.76,2.7,2.08,2.7s2.35-.86,2.35-3v-6Z"/><path class="cls-2" d="M403.85,105.08v4a7.29,7.29,0,0,0-1-.07c-1.78,0-3,.9-3,3.09v5.74h-4.39v-12.5h4.18v1.5A5.12,5.12,0,0,1,403.85,105.08Z"/><path class="cls-1" d="M119,222.29H103.79L103.1,224s2.08,14.14,20.24,17.07C123.34,241,115.43,232,119,222.29Z"/><rect class="cls-1" x="12.9" y="174.68" width="125.35" height="52.2" rx="13.55"/><path class="cls-1" d="M145,41H133.88l-.5,1.34S134.9,53.63,148.21,56C148.21,56,142.41,48.7,145,41Z"/><rect class="cls-1" x="67.31" y="2.8" width="91.81" height="41.83" rx="13.55"/><path class="cls-2" d="M46.64,201.21c0,2.57-2,4-5.76,4H33.71v-15h6.75c3.45,0,5.38,1.46,5.38,3.88a3.56,3.56,0,0,1-2,3.35A3.64,3.64,0,0,1,46.64,201.21ZM35.86,192v4.8h4.4c2.19,0,3.44-.81,3.44-2.4s-1.25-2.4-3.44-2.4ZM44.47,201c0-1.74-1.29-2.52-3.67-2.52H35.86v5H40.8C43.18,203.53,44.47,202.77,44.47,201Z"/><path class="cls-2" d="M48.62,199.58a5.92,5.92,0,1,1,5.92,5.81A5.66,5.66,0,0,1,48.62,199.58Zm9.74,0a3.83,3.83,0,1,0-3.82,4A3.74,3.74,0,0,0,58.36,199.58Z"/><path class="cls-2" d="M74.11,198.72v6.54H72V199c0-2.23-1.11-3.33-3.07-3.33-2.19,0-3.6,1.31-3.6,3.78v5.86H63.31V193.89h2v1.71a4.88,4.88,0,0,1,4.1-1.82C72.15,193.78,74.11,195.37,74.11,198.72Z"/><path class="cls-2" d="M74,208.87l.67-1.59a2.56,2.56,0,0,0,1.67.54c1.1,0,1.7-.69,1.7-2V193.89H80.1v11.89c0,2.32-1.29,3.78-3.63,3.78A4.08,4.08,0,0,1,74,208.87Zm3.67-18.5a1.36,1.36,0,0,1,1.4-1.36,1.33,1.33,0,0,1,1.39,1.31,1.4,1.4,0,0,1-2.79.05Z"/><path class="cls-2" d="M83,199.58a5.92,5.92,0,1,1,5.92,5.81A5.66,5.66,0,0,1,83,199.58Zm9.74,0a3.83,3.83,0,1,0-3.82,4A3.74,3.74,0,0,0,92.72,199.58Z"/><path class="cls-2" d="M108.27,193.89v11.37h-2v-1.71a4.64,4.64,0,0,1-3.87,1.84c-2.94,0-4.89-1.61-4.89-5v-6.54h2.06v6.31c0,2.23,1.12,3.35,3.07,3.35,2.15,0,3.52-1.33,3.52-3.78v-5.88Z"/><path class="cls-2" d="M118.32,193.78v2a2.58,2.58,0,0,0-.47,0c-2.21,0-3.59,1.36-3.59,3.85v5.66H112.2V193.89h2v1.91C114.91,194.47,116.33,193.78,118.32,193.78Z"/><path class="cls-3" d="M454.8,413.46c0,.15-101.82.26-227.39.26S0,413.61,0,413.46s101.8-.26,227.41-.26S454.8,413.32,454.8,413.46Z"/><rect class="cls-1" x="334.49" y="375.25" width="19.09" height="36.16" transform="translate(688.07 786.66) rotate(180)"/><rect class="cls-4" x="353.58" y="373.97" width="89.59" height="39.21" transform="translate(796.74 787.16) rotate(180)"/><path class="cls-4" d="M333,413.19h23v-2.55H333a1.27,1.27,0,0,0-1.27,1.27h0A1.27,1.27,0,0,0,333,413.19Z"/><path class="cls-4" d="M331.73,374h23.2a1.1,1.1,0,0,1,1.1,1.1v.34a1.1,1.1,0,0,1-1.1,1.1h-23.2a0,0,0,0,1,0,0V374A0,0,0,0,1,331.73,374Z" transform="translate(687.75 750.49) rotate(180)"/><path class="cls-2" d="M334.49,380.09c0,.06,4.27.11,9.54.11s9.55-.05,9.55-.11S349.3,380,344,380,334.49,380,334.49,380.09Z"/><path class="cls-2" d="M334.49,384.73c0,.06,4.27.11,9.54.11s9.55,0,9.55-.11-4.28-.11-9.55-.11S334.49,384.67,334.49,384.73Z"/><path class="cls-2" d="M334.49,389.37c0,.06,4.27.11,9.54.11s9.55-.05,9.55-.11-4.28-.11-9.55-.11S334.49,389.31,334.49,389.37Z"/><path class="cls-2" d="M334.49,394c0,.06,4.27.11,9.54.11s9.55-.05,9.55-.11-4.28-.11-9.55-.11S334.49,394,334.49,394Z"/><path class="cls-2" d="M334.49,398.65c0,.06,4.27.11,9.54.11s9.55-.05,9.55-.11-4.28-.11-9.55-.11S334.49,398.59,334.49,398.65Z"/><path class="cls-2" d="M334.49,403.28c0,.06,4.27.11,9.54.11s9.55-.05,9.55-.11-4.28-.1-9.55-.1S334.49,403.22,334.49,403.28Z"/><path class="cls-2" d="M334.49,407.92c0,.06,4.27.11,9.54.11s9.55,0,9.55-.11-4.28-.11-9.55-.11S334.49,407.86,334.49,407.92Z"/><rect class="cls-1" x="419.33" y="336.39" width="18.42" height="21.89"/><rect class="cls-5" x="336.74" y="334.97" width="83.23" height="24.7"/><path class="cls-5" d="M438.31,337H417.74V335h20.57a1,1,0,0,1,1,1h0A1,1,0,0,1,438.31,337Z"/><path class="cls-5" d="M438.31,359.67H417.74v-2.08h20.57a1,1,0,0,1,1,1h0A1,1,0,0,1,438.31,359.67Z"/><g class="cls-6"><rect x="403.59" y="334.97" width="9.83" height="24.7"/></g><g class="cls-6"><rect x="344.13" y="334.97" width="9.83" height="24.7"/></g><path class="cls-2" d="M437.75,340c0,.06-4,.11-8.9.11s-8.9-.05-8.9-.11,4-.11,8.9-.11S437.75,340,437.75,340Z"/><path class="cls-2" d="M437.75,343.3c0,.06-4,.11-8.9.11s-8.9-.05-8.9-.11,4-.11,8.9-.11S437.75,343.24,437.75,343.3Z"/><path class="cls-2" d="M437.75,347.34c0,.06-4,.11-8.9.11s-8.9-.05-8.9-.11,4-.11,8.9-.11S437.75,347.28,437.75,347.34Z"/><path class="cls-2" d="M437.75,351.38c0,.07-4,.11-8.9.11s-8.9,0-8.9-.11,4-.1,8.9-.1S437.75,351.32,437.75,351.38Z"/><path class="cls-2" d="M437.75,355.43c0,.06-4,.11-8.9.11s-8.9-.05-8.9-.11,4-.11,8.9-.11S437.75,355.37,437.75,355.43Z"/><g class="cls-7"><rect x="360.86" y="345.12" width="37.44" height="4.45"/></g><rect class="cls-8" x="418.87" y="360.15" width="18.7" height="13.34"/><rect class="cls-9" x="339.5" y="359.67" width="79.58" height="14.31"/><path class="cls-9" d="M418.5,360.63h20.09a.48.48,0,0,0,.49-.48h0a.48.48,0,0,0-.49-.48H418.5Z"/><path class="cls-9" d="M418.5,373h20.16a.42.42,0,0,1,.42.42v.13a.42.42,0,0,1-.42.42H418.5a0,0,0,0,1,0,0v-1A0,0,0,0,1,418.5,373Z"/><path class="cls-2" d="M437.56,362.68c0,.06-4.14.11-9.24.11s-9.25-.05-9.25-.11,4.14-.11,9.25-.11S437.56,362.62,437.56,362.68Z"/><path class="cls-2" d="M437.56,365.21c0,.06-4.14.11-9.24.11s-9.25-.05-9.25-.11,4.14-.11,9.25-.11S437.56,365.15,437.56,365.21Z"/><path class="cls-2" d="M437.56,367.73c0,.06-4.14.11-9.24.11s-9.25,0-9.25-.11,4.14-.11,9.25-.11S437.56,367.67,437.56,367.73Z"/><path class="cls-2" d="M437.56,370.26c0,.06-4.14.11-9.24.11s-9.25-.05-9.25-.11,4.14-.11,9.25-.11S437.56,370.2,437.56,370.26Z"/><path class="cls-10" d="M364,391.08h3.48c2.51,0,4.23,1.49,4.23,3.78s-1.72,3.77-4.23,3.77H364Zm3.39,6.11a2.34,2.34,0,1,0,0-4.67h-1.62v4.67Z"/><path class="cls-10" d="M373,391.08h1.77v7.55H373Z"/><path class="cls-10" d="M376.12,394.86a3.92,3.92,0,0,1,4.16-3.91,4,4,0,0,1,3.16,1.34l-1.14,1a2.48,2.48,0,0,0-1.93-.88,2.42,2.42,0,1,0,0,4.83,2.44,2.44,0,0,0,1.93-.9l1.14,1a4,4,0,0,1-3.17,1.35A3.91,3.91,0,0,1,376.12,394.86Z"/><path class="cls-10" d="M386.15,392.51h-2.46v-1.43h6.69v1.43h-2.46v6.12h-1.77Z"/><path class="cls-10" d="M391.33,391.08h1.78v7.55h-1.78Z"/><path class="cls-10" d="M394.44,394.86a4.21,4.21,0,1,1,4.2,3.9A3.95,3.95,0,0,1,394.44,394.86Zm6.6,0a2.4,2.4,0,1,0-2.4,2.41A2.32,2.32,0,0,0,401,394.86Z"/><path class="cls-10" d="M411.21,391.08v7.55h-1.46l-3.82-4.58v4.58h-1.75v-7.55h1.46l3.82,4.58v-4.58Z"/><path class="cls-10" d="M418.08,397h-3.56l-.68,1.62H412l3.42-7.55h1.75l3.43,7.55h-1.86Zm-.56-1.33-1.21-2.88-1.22,2.88Z"/><path class="cls-10" d="M426.31,398.63l-1.48-2.1H423.2v2.1h-1.78v-7.55h3.32c2.05,0,3.34,1.05,3.34,2.74a2.46,2.46,0,0,1-1.58,2.38l1.72,2.43Zm-1.66-6.12H423.2v2.62h1.45c1.08,0,1.63-.49,1.63-1.31S425.73,392.51,424.65,392.51Z"/><path class="cls-10" d="M433.05,396v2.68h-1.77v-2.7l-3-4.85h1.88l2.05,3.35,2.05-3.35H436Z"/><path class="cls-10" d="M363.68,364.26l-.54,2.69h3.35l-.08.42h-3.35l-.56,2.78H362l1.26-6.3h4.21l-.09.41Z"/><path class="cls-10" d="M370.65,365.41l-.08.45h-.14c-1.07,0-1.77.64-2,1.89l-.49,2.41h-.45l.94-4.7h.44l-.2,1A2.18,2.18,0,0,1,370.65,365.41Z"/><path class="cls-10" d="M371.28,367.9c0,.1,0,.2,0,.29,0,1,.59,1.59,1.74,1.59a2.21,2.21,0,0,0,1.61-.63l.2.31a2.51,2.51,0,0,1-1.85.72,1.9,1.9,0,0,1-2.14-2,2.62,2.62,0,0,1,2.56-2.8,1.84,1.84,0,0,1,2,2,4.17,4.17,0,0,1-.05.52Zm.05-.35H375a1.93,1.93,0,0,0,0-.24,1.44,1.44,0,0,0-1.59-1.51A2.07,2.07,0,0,0,371.33,367.55Z"/><path class="cls-10" d="M381.07,366.92a2.32,2.32,0,0,1-.05.51l-.54,2.72H380l.54-2.72a1.82,1.82,0,0,0,.05-.45c0-.73-.45-1.16-1.33-1.16a2,2,0,0,0-2.06,1.77l-.51,2.56h-.45l.94-4.7h.44l-.18.89a2.25,2.25,0,0,1,1.94-.93A1.45,1.45,0,0,1,381.07,366.92Z"/><path class="cls-10" d="M382.26,368.23a2.66,2.66,0,0,1,2.7-2.82,1.89,1.89,0,0,1,1.78.89l-.37.22a1.54,1.54,0,0,0-1.44-.7,2.23,2.23,0,0,0-2.22,2.38,1.49,1.49,0,0,0,1.7,1.58,2,2,0,0,0,1.56-.69l.31.26a2.4,2.4,0,0,1-1.91.83A1.89,1.89,0,0,1,382.26,368.23Z"/><path class="cls-10" d="M392.05,366.92a2.35,2.35,0,0,1-.06.51l-.54,2.72H391l.54-2.72a1.82,1.82,0,0,0,0-.45c0-.73-.44-1.16-1.33-1.16a2,2,0,0,0-2.06,1.77l-.51,2.56h-.45l1.33-6.68H389l-.56,2.85a2.24,2.24,0,0,1,1.92-.91C391.46,365.41,392.05,366,392.05,366.92Z"/><path class="cls-10" d="M364.52,343.46h1.17l-1.26,6.3h-1.17Z"/><path class="cls-10" d="M367.61,348.15a1.5,1.5,0,0,0,0,.2.49.49,0,0,0,.57.54,1.13,1.13,0,0,0,.63-.19l.19.83a2.13,2.13,0,0,1-1.16.29,1.24,1.24,0,0,1-1.37-1.29,2.51,2.51,0,0,1,0-.37l.46-2.27h-.78l.18-.9h.78l.22-1.1h1.12l-.22,1.1h1.29l-.18.9h-1.29Z"/><path class="cls-10" d="M375.32,345l-.95,4.81H373.3l.1-.5a2.32,2.32,0,0,1-1.57.56,2,2,0,0,1-2.11-2.12,2.68,2.68,0,0,1,2.71-2.8,1.8,1.8,0,0,1,1.63.76l.14-.71Zm-1.54,2.11a1.14,1.14,0,0,0-1.27-1.21,1.67,1.67,0,0,0-1.66,1.8,1.14,1.14,0,0,0,1.27,1.21A1.67,1.67,0,0,0,373.78,347.06Z"/><path class="cls-10" d="M377.18,343.08h1.12L377,349.76h-1.13Z"/><path class="cls-10" d="M379.4,345h1.12l-.95,4.81h-1.13Zm.14-1.42a.72.72,0,0,1,.77-.72.62.62,0,0,1,.67.6.72.72,0,0,1-.76.75A.64.64,0,0,1,379.54,343.53Z"/><path class="cls-10" d="M386.69,345l-.95,4.81h-1.07l.1-.5a2.32,2.32,0,0,1-1.57.56,2,2,0,0,1-2.11-2.12,2.68,2.68,0,0,1,2.7-2.8,1.81,1.81,0,0,1,1.64.76l.14-.71Zm-1.55,2.11a1.13,1.13,0,0,0-1.26-1.21,1.67,1.67,0,0,0-1.66,1.8,1.14,1.14,0,0,0,1.27,1.21A1.67,1.67,0,0,0,385.14,347.06Z"/><path class="cls-10" d="M392.54,346.52a3,3,0,0,1-.07.57l-.53,2.67h-1.12l.52-2.64a1.73,1.73,0,0,0,0-.37c0-.56-.31-.87-1-.87a1.51,1.51,0,0,0-1.57,1.38l-.5,2.5h-1.13l1-4.81h1.07l-.1.53a2.43,2.43,0,0,1,1.65-.58A1.55,1.55,0,0,1,392.54,346.52Z"/><path class="cls-8" d="M320.13,160.05H404a9.38,9.38,0,0,1,9.38,9.38v27.44a9.38,9.38,0,0,1-9.38,9.38H392.75c.38,6.38,4.76,11.41,4.76,11.41-10.4-1.68-15-7.42-16.91-11.41H320.13a9.38,9.38,0,0,1-9.38-9.38V169.43A9.38,9.38,0,0,1,320.13,160.05Z"/><path class="cls-3" d="M320.13,160.05a15.23,15.23,0,0,0-2.25.33A9.37,9.37,0,0,0,312.6,164a9.26,9.26,0,0,0-1.68,4.36,27.26,27.26,0,0,0-.05,2.74c0,1,0,1.94,0,3,0,4.11,0,8.82,0,14,0,2.62,0,5.36,0,8.23a9.8,9.8,0,0,0,.78,4.22,9.25,9.25,0,0,0,2.72,3.51,9,9,0,0,0,4.2,1.85,13.59,13.59,0,0,0,2.4.13h12.8l46.77,0h.16l.07.14a19.14,19.14,0,0,0,6.76,7.58,22.76,22.76,0,0,0,4.74,2.35,31.44,31.44,0,0,0,5.22,1.33l-.24.43a23.32,23.32,0,0,1-3.23-5.31,18.52,18.52,0,0,1-1.59-6.25l0-.28h8.47c1.28,0,2.61,0,3.84,0a9,9,0,0,0,3.55-1.07,9.16,9.16,0,0,0,4.43-5.64,12.68,12.68,0,0,0,.32-3.65v-3.72c0-4.93,0-9.78,0-14.52,0-2.38,0-4.72,0-7a9.59,9.59,0,0,0-1.82-6.34,9.13,9.13,0,0,0-5.38-3.47,15,15,0,0,0-3.22-.22H386.94l-22.43,0L332,160.15l-8.82,0-2.3,0-.78,0s.26,0,.78,0l2.3,0L332,160l32.48-.08,22.43,0,12.49,0h3.25A15,15,0,0,1,406,160a9.65,9.65,0,0,1,5.66,3.65,10,10,0,0,1,1.92,6.62c0,2.32,0,4.66,0,7,0,4.74,0,9.59,0,14.52v3.72a13.52,13.52,0,0,1-.34,3.78,9.7,9.7,0,0,1-4.69,6,9.57,9.57,0,0,1-3.74,1.13c-1.33.08-2.59,0-3.89,0h-8.19l.26-.27a20.7,20.7,0,0,0,4.69,11.24l.44.55-.68-.12a32,32,0,0,1-5.31-1.35,23.51,23.51,0,0,1-4.84-2.41,19.67,19.67,0,0,1-6.94-7.79l.23.14-46.77,0H321a13.55,13.55,0,0,1-2.46-.15,9.32,9.32,0,0,1-4.38-1.94,9.61,9.61,0,0,1-2.82-3.66,10.14,10.14,0,0,1-.8-4.37q0-4.31,0-8.23c0-5.22,0-9.93,0-14,0-1,0-2,0-3s0-1.87.08-2.76a9.42,9.42,0,0,1,7.15-8.05,7.81,7.81,0,0,1,1.69-.23Z"/><path class="cls-5" d="M328.67,189.59l1.39-3.08a10.37,10.37,0,0,0,5.82,1.84c2.42,0,3.4-.81,3.4-1.89,0-3.3-10.26-1-10.26-7.59,0-3,2.42-5.49,7.44-5.49a11.89,11.89,0,0,1,6.13,1.56l-1.26,3.1a10,10,0,0,0-4.9-1.39c-2.42,0-3.35.91-3.35,2,0,3.25,10.26,1,10.26,7.49,0,3-2.44,5.47-7.49,5.47A12.57,12.57,0,0,1,328.67,189.59Z"/><path class="cls-5" d="M357.86,183.59v7.74h-3.68v-1.69c-.73,1.23-2.14,1.89-4.13,1.89-3.18,0-5.07-1.77-5.07-4.11s1.69-4.06,5.82-4.06h3.13c0-1.69-1-2.67-3.13-2.67a6.52,6.52,0,0,0-3.9,1.26l-1.42-2.75a10.42,10.42,0,0,1,5.85-1.64C355.47,177.56,357.86,179.48,357.86,183.59ZM353.93,187v-1.39h-2.7c-1.84,0-2.42.68-2.42,1.59s.83,1.64,2.22,1.64A2.9,2.9,0,0,0,353.93,187Z"/><path class="cls-5" d="M361.41,172.62h3.94v18.71h-3.94Z"/><path class="cls-5" d="M382.66,177.76v13.57h-3.73v-1.62a5.46,5.46,0,0,1-4.21,1.82c-3.4,0-5.79-1.92-5.79-6.1v-7.67h3.93v7.09c0,2.27,1,3.27,2.75,3.27s3.12-1.16,3.12-3.65v-6.71Z"/><path class="cls-5" d="M395.07,190.67a5.66,5.66,0,0,1-3.21.86c-3.2,0-5.06-1.64-5.06-4.87v-5.57h-2.09v-3h2.09v-3.31h3.93v3.31h3.38v3h-3.38v5.52a1.58,1.58,0,0,0,1.69,1.79,2.71,2.71,0,0,0,1.59-.5Z"/><path class="cls-8" d="M265.11,18h-58.3A14.92,14.92,0,0,0,191.89,33V59.3a14.92,14.92,0,0,0,14.92,14.92h37.54C244.33,81.83,239,88,239,88c12.54-2,17.54-9.3,19.45-13.76h6.69A14.92,14.92,0,0,0,280,59.3V33A14.92,14.92,0,0,0,265.11,18Z"/><path class="cls-3" d="M265.11,18h.38l1.11,0a15.37,15.37,0,0,1,4.2,1,15,15,0,0,1,9.3,12.56c0,.44,0,.89.07,1.34s0,.91,0,1.37v2.84c0,1.93,0,4,0,6.07q0,6.33,0,13.63c0,1.21,0,2.44-.06,3.71-.05.63-.16,1.27-.27,1.9a15.87,15.87,0,0,1-.54,1.87,15.35,15.35,0,0,1-4.53,6.54,15.14,15.14,0,0,1-7.65,3.37,30,30,0,0,1-4.34.16h-4.41l.22-.14A22,22,0,0,1,251,83.64a26.77,26.77,0,0,1-5.64,3,36.89,36.89,0,0,1-6.3,1.64l-.66.12.43-.53a25.85,25.85,0,0,0,3.72-6.24,19.83,19.83,0,0,0,1.59-7.36l.26.25H206.81c-.61,0-1.23,0-1.85-.13a15.19,15.19,0,0,1-6.8-2.59,15.1,15.1,0,0,1-6.51-12.18q0-3.46,0-6.86,0-6.8,0-13.28,0-3.24,0-6.4a15.07,15.07,0,0,1,1.27-6.14,15.23,15.23,0,0,1,8.54-8.1,15.89,15.89,0,0,1,5.62-1h5.46l10.26,0,30.95.08,8.42.05,2.19,0,.74,0-.74,0-2.19,0-8.42.05-30.95.09H207.09a15.25,15.25,0,0,0-5.47,1,14.76,14.76,0,0,0-8.27,7.87c-1.78,3.71-1.08,8.07-1.22,12.36s0,8.75,0,13.28c0,2.26,0,4.54,0,6.85a14.86,14.86,0,0,0,1.69,6.59,15.12,15.12,0,0,0,4.6,5.18,14.85,14.85,0,0,0,6.58,2.5c.59.09,1.19.07,1.78.12h37.8v.26A20.44,20.44,0,0,1,243,81.77a26.25,26.25,0,0,1-3.81,6.38l-.23-.41a36.4,36.4,0,0,0,6.2-1.61,26.21,26.21,0,0,0,5.54-2.88,21.55,21.55,0,0,0,7.54-9.13l.06-.14h4.56a30.2,30.2,0,0,0,4.28-.15A14.61,14.61,0,0,0,279,64.23a14.55,14.55,0,0,0,.53-1.82c.12-.61.22-1.23.28-1.84.09-1.23.06-2.47.07-3.68q0-7.29,0-13.63c0-2.11,0-4.14,0-6.07V34.35c0-.46,0-.92,0-1.37l-.06-1.31a14.88,14.88,0,0,0-9.09-12.45A16.4,16.4,0,0,0,265.11,18Z"/><path class="cls-5" d="M226.05,37.72V53h-2.18V46.2h-8.78V53h-2.18V37.72h2.18V44.3h8.78V37.72Z"/><path class="cls-5" d="M229.26,47.22a6,6,0,1,1,6,5.92A5.75,5.75,0,0,1,229.26,47.22Zm9.91,0a3.9,3.9,0,1,0-7.79,0,3.9,3.9,0,1,0,7.79,0Z"/><path class="cls-5" d="M244.19,36.81h2.1V53h-2.1Z"/><path class="cls-5" d="M259.45,46v7h-2V51.48a4.3,4.3,0,0,1-3.8,1.66c-2.62,0-4.28-1.4-4.28-3.41,0-1.85,1.2-3.38,4.65-3.38h3.32v-.42c0-1.77-1-2.79-3.1-2.79a5.86,5.86,0,0,0-3.67,1.24l-.88-1.57a7.74,7.74,0,0,1,4.79-1.48C257.66,41.33,259.45,42.85,259.45,46Zm-2.09,3.45V47.85h-3.23c-2.08,0-2.67.81-2.67,1.8,0,1.15,1,1.87,2.56,1.87A3.36,3.36,0,0,0,257.36,49.47Z"/><path class="cls-8" d="M61.09,249.71h53.42a8.93,8.93,0,0,1,8.93,8.94v22.5a8.94,8.94,0,0,1-8.93,8.94H76.89c-2.3,3.81-6.93,8.47-16.12,10a22,22,0,0,0,4.6-10H61.09a8.94,8.94,0,0,1-8.94-8.94v-22.5A8.94,8.94,0,0,1,61.09,249.71Z"/><path class="cls-3" d="M61.09,249.71a9.89,9.89,0,0,0-3.78.92,9,9,0,0,0-3.51,3,9.09,9.09,0,0,0-1.22,2.69,11.21,11.21,0,0,0-.3,3.34c0,4.8,0,10.63,0,17.31,0,.84,0,1.69,0,2.55s0,1.75.06,2.6a8.79,8.79,0,0,0,7,7.57,14.27,14.27,0,0,0,2.94.17h3.32l0,.26A21.87,21.87,0,0,1,61,300.19l-.21-.39a26.35,26.35,0,0,0,8.9-3,19.47,19.47,0,0,0,7-6.8l.08-.13h36.92a12.32,12.32,0,0,0,2.8-.23,8.69,8.69,0,0,0,6.68-7.75c.08-7.35,0-14.52,0-21.3a12.59,12.59,0,0,0-.53-4.89,8.58,8.58,0,0,0-2.74-3.82,8.69,8.69,0,0,0-4.2-1.82,15.84,15.84,0,0,0-2.29-.09h-2.28l-16.81,0L70,249.81l-6.61-.05-1.73,0-.58,0,.58,0,1.73,0L70,249.6l24.34-.08,16.81,0h2.28a15.59,15.59,0,0,1,2.35.09,9.09,9.09,0,0,1,4.43,1.9,9.18,9.18,0,0,1,2.9,4,8.93,8.93,0,0,1,.53,2.5c.06.87,0,1.69,0,2.55,0,6.8,0,13.91,0,21.34a9.2,9.2,0,0,1-7.08,8.21,12.45,12.45,0,0,1-2.91.25H76.89l.21-.12a19.91,19.91,0,0,1-7.22,7,27,27,0,0,1-9.07,3.08l-.61.1.39-.49a21.35,21.35,0,0,0,4.56-9.83l.22.26H62.31a14.59,14.59,0,0,1-3-.18,9.2,9.2,0,0,1-5-2.91,9.1,9.1,0,0,1-2.24-5c-.08-.92-.06-1.79-.06-2.65s0-1.71,0-2.55c0-6.68,0-12.51.05-17.31a11.36,11.36,0,0,1,.34-3.4,9.24,9.24,0,0,1,1.28-2.74,9.05,9.05,0,0,1,3.61-3,9.15,9.15,0,0,1,2.83-.77A9.58,9.58,0,0,1,61.09,249.71Z"/><path class="cls-5" d="M77.45,264.4V276H74.76v-4.77H69.47V276H66.78V264.4h2.69V269h5.29V264.4Z"/><path class="cls-5" d="M88.73,272.29H82a2.38,2.38,0,0,0,2.56,1.8,3,3,0,0,0,2.24-.87l1.38,1.5a4.67,4.67,0,0,1-3.69,1.44c-3.09,0-5.1-1.94-5.1-4.6a4.55,4.55,0,0,1,4.77-4.6,4.43,4.43,0,0,1,4.65,4.64C88.78,271.79,88.75,272.08,88.73,272.29Zm-6.8-1.51h4.41a2.24,2.24,0,0,0-4.41,0Z"/><path class="cls-5" d="M90.51,263.7H93.1V276H90.51Z"/><path class="cls-5" d="M95.51,263.7H98.1V276H95.51Z"/><path class="cls-5" d="M99.84,271.56a4.92,4.92,0,1,1,4.92,4.6A4.6,4.6,0,0,1,99.84,271.56Zm7.2,0a2.29,2.29,0,1,0-2.28,2.48A2.25,2.25,0,0,0,107,271.56Z"/><path class="cls-8" d="M137.26,76.52H48.69A17.22,17.22,0,0,0,31.46,93.74v28.2a17.23,17.23,0,0,0,17.23,17.23H123c1.59,4.72,6.86,15,23.14,17.64,0,0-7.15-8.21-6.11-17.89a17.23,17.23,0,0,0,14.42-17V93.74A17.23,17.23,0,0,0,137.26,76.52Z"/><path class="cls-3" d="M137.26,76.52s.49,0,1.44,0a17.26,17.26,0,0,1,4.11.82,16.56,16.56,0,0,1,5.88,3.38l.77.68c.24.25.47.52.72.79a17.88,17.88,0,0,1,1.4,1.75,18.51,18.51,0,0,1,2.18,4.41,18.81,18.81,0,0,1,.86,5.42c0,1.92,0,3.92,0,6q0,6.29,0,13.58c0,2.43,0,4.93,0,7.52a22.07,22.07,0,0,1-.25,4,16.69,16.69,0,0,1-1.16,3.91,17.21,17.21,0,0,1-5.09,6.72,17.92,17.92,0,0,1-3.75,2.31,19.14,19.14,0,0,1-4.32,1.32l.18-.19c-.6,6.08,1.91,12.55,6.07,17.72l.38.48-.59-.1a33.71,33.71,0,0,1-13.89-5.35,26,26,0,0,1-5.66-5.39,25.08,25.08,0,0,1-3.78-7.05l.23.16-57.86,0H50.76A28.29,28.29,0,0,1,46,139.2a17.28,17.28,0,0,1-8.55-3.89,18.18,18.18,0,0,1-3.15-3.47,17.23,17.23,0,0,1-2.1-4.15,20.86,20.86,0,0,1-.63-2.22,22.39,22.39,0,0,1-.29-2.29c-.12-1.54,0-3-.06-4.53v-8.89q0-4.4,0-8.7V96.78c0-1.43,0-2.82.06-4.25a17,17,0,0,1,2.55-7.93,18.08,18.08,0,0,1,2.54-3.23,17.86,17.86,0,0,1,3.2-2.49A17.22,17.22,0,0,1,47,76.38c1.3-.09,2.58-.09,3.85-.08h3.77l27.73,0,40.15.09,10.91,0,2.84,0,1,0-1,0-2.84,0-10.91.05-40.15.08-27.73,0H50.89c-1.27,0-2.55,0-3.81.08a16.73,16.73,0,0,0-7.27,2.45A16.93,16.93,0,0,0,36.7,81.7a18,18,0,0,0-2.47,3.15,16.52,16.52,0,0,0-2.47,7.72c-.1,1.37,0,2.79-.06,4.21v4.28q0,4.31,0,8.7v8.89c0,3-.15,6,1,8.88a16.88,16.88,0,0,0,2,4,18.12,18.12,0,0,0,3.06,3.37,17,17,0,0,0,8.3,3.77,28,28,0,0,0,4.69.22h72.46l.06.17A24.92,24.92,0,0,0,127,146a25.71,25.71,0,0,0,5.54,5.29,33.42,33.42,0,0,0,13.69,5.29L146,157a29.64,29.64,0,0,1-4.88-8.67,21.31,21.31,0,0,1-1.26-9.39v-.16l.16,0a18.73,18.73,0,0,0,4.22-1.27,19,19,0,0,0,3.67-2.25,17.16,17.16,0,0,0,5-6.56,16.92,16.92,0,0,0,1.14-3.82,22.17,22.17,0,0,0,.25-3.89c0-2.59,0-5.09,0-7.52q0-7.29,0-13.58c0-2.09,0-4.09,0-6a19,19,0,0,0-.82-5.34,18.3,18.3,0,0,0-2.13-4.37A17.23,17.23,0,0,0,150,82.36c-.24-.26-.47-.53-.71-.78l-.75-.68a16.77,16.77,0,0,0-5.8-3.4,17.64,17.64,0,0,0-4.08-.88Z"/><path class="cls-9" d="M57.75,114.31l1.64-3.68a11.15,11.15,0,0,0,5.82,1.74c2.07,0,2.87-.58,2.87-1.44,0-2.8-10-.75-10-7.31,0-3.15,2.57-5.72,7.82-5.72a13.2,13.2,0,0,1,6.4,1.54l-1.54,3.7a10.51,10.51,0,0,0-4.89-1.36c-2.09,0-2.85.71-2.85,1.59,0,2.7,10,.68,10,7.18,0,3.08-2.57,5.7-7.81,5.7A13.89,13.89,0,0,1,57.75,114.31Z"/><path class="cls-9" d="M87.87,108.31v7.59H83.41v-1.77c-.68,1.31-2,2-4,2-3.28,0-5.1-1.84-5.1-4.2,0-2.53,1.84-4.09,6.08-4.09h2.72c-.07-1.39-1-2.17-2.9-2.17a6.35,6.35,0,0,0-3.7,1.19l-1.62-3.25a11.47,11.47,0,0,1,6-1.59C85.33,102,87.87,104,87.87,108.31Zm-4.79,3.2v-1.18H81c-1.54,0-2.1.55-2.1,1.38s.66,1.39,1.79,1.39A2.36,2.36,0,0,0,83.08,111.51Z"/><path class="cls-9" d="M90.9,97.19h4.79V115.9H90.9Z"/><path class="cls-9" d="M113.18,102.24l-5.65,13.66h-4.94L97,102.24h4.92l3.27,8.34,3.46-8.34Z"/><path class="cls-9" d="M127.93,110.28H118a3.17,3.17,0,0,0,3.36,2.19,4.39,4.39,0,0,0,3.15-1.19l2.52,2.63a7.41,7.41,0,0,1-5.83,2.21c-4.86,0-8-3-8-7.08s3.2-7,7.51-7c4,0,7.31,2.57,7.31,7.08C128,109.44,128,109.9,127.93,110.28Zm-10-2.52h5.59a2.84,2.84,0,0,0-5.59,0Z"/><path class="cls-3" d="M281.29,220.38a7.76,7.76,0,0,1-7.3-3.26c1.88.29,3.91.56,5.61-.3s2.65-3.37,1.32-4.73c-1-1.06-2.74-.88-4.23-1a9.12,9.12,0,0,1-7.77-6c-1.26-3.6-.11-7.53.34-11.32A31.19,31.19,0,0,0,256.21,165l-23.73-13.71c-8.61,11-11.29,25.86-9.51,39.72s7.67,26.89,14.74,39a46.22,46.22,0,0,0,7.16,9.86,18.31,18.31,0,0,0,10.66,5.47,11,11,0,0,0-1.75-9.93,24,24,0,0,0,17.64-6.32l-5.08-3.9A18.58,18.58,0,0,0,281.29,220.38Z"/><path class="cls-11" d="M189.9,181.68c.42-9.92,6.59-18.22,16.14-21l29.74-8.5c12.91-1.76,22,13.92,23.24,26.89,1.35,14.42,2.37,29.64,1,40.47-2.78,21.77-19.3,25-19.3,25s.55,19.62.72,25.95L226.3,302.22,197,261.75l-7.15-79.81C189.81,181.57,189.88,182.17,189.9,181.68Z"/><path class="cls-3" d="M250.11,198.08a2.78,2.78,0,0,1-2.59,2.89,2.67,2.67,0,0,1-3-2.42,2.78,2.78,0,0,1,2.59-2.88A2.66,2.66,0,0,1,250.11,198.08Z"/><path class="cls-3" d="M256,187.71c-.34.37-2.49-1.12-5.48-1s-5.14,1.67-5.47,1.31c-.17-.16.16-.82,1.1-1.55a7.63,7.63,0,0,1,4.36-1.49,7.34,7.34,0,0,1,4.38,1.26C255.84,186.89,256.17,187.54,256,187.71Z"/><path class="cls-3" d="M223.73,198.08a2.79,2.79,0,0,1-2.6,2.89,2.66,2.66,0,0,1-2.94-2.42,2.8,2.8,0,0,1,2.59-2.89A2.68,2.68,0,0,1,223.73,198.08Z"/><path class="cls-3" d="M227.61,188.52c-.34.37-2.49-1.12-5.48-1s-5.14,1.66-5.47,1.3c-.17-.15.16-.82,1.1-1.54a7.56,7.56,0,0,1,4.36-1.5A7.29,7.29,0,0,1,226.5,187C227.44,187.7,227.77,188.35,227.61,188.52Z"/><path class="cls-3" d="M237.62,211.74c0-.17,1.83-.55,4.83-1,.77-.1,1.48-.28,1.6-.8a4,4,0,0,0-.58-2.25c-.78-1.82-1.59-3.74-2.44-5.74-3.39-8.19-5.87-14.92-5.54-15.06s3.35,6.39,6.74,14.58q1.23,3,2.34,5.78a4.42,4.42,0,0,1,.49,3,1.94,1.94,0,0,1-1.22,1.16,5.8,5.8,0,0,1-1.29.22C239.52,211.83,237.64,211.91,237.62,211.74Z"/><path class="cls-12" d="M211.75,237.74s7.48,14.68,29.1,12l-.14-5.1A54.68,54.68,0,0,1,211.75,237.74Z"/><path class="cls-3" d="M226.36,178.87c-.27.82-3.27.53-6.76,1.06s-6.31,1.57-6.8.86c-.21-.34.26-1.12,1.38-1.95a11.32,11.32,0,0,1,5-1.92,11.44,11.44,0,0,1,5.33.46C225.81,177.86,226.47,178.48,226.36,178.87Z"/><path class="cls-3" d="M254.77,178.59c-.51.69-2.59,0-5.07.09s-4.56.6-5.06-.1c-.22-.33.09-1,1-1.7a7.16,7.16,0,0,1,4.08-1.24,7,7,0,0,1,4.08,1.25C254.68,177.56,255,178.25,254.77,178.59Z"/><path class="cls-12" d="M226.41,217.58a3.89,3.89,0,0,1,4-3.08,4.07,4.07,0,0,1,3.2,2.14,5,5,0,0,1,.28,3.9l-.05.28a4.45,4.45,0,0,1-5,1.21A4.15,4.15,0,0,1,226.41,217.58Z"/><path class="cls-3" d="M236,220.82c0-.46-3-.22-5.38-2.64s-2.26-5.66-2.69-5.65c-.19,0-.53.76-.46,2.13a7.53,7.53,0,0,0,2.08,4.72,6.51,6.51,0,0,0,4.49,2C235.27,221.42,236,221,236,220.82Z"/><path class="cls-3" d="M199.9,147.16c3.35-5.32,11.25-10.87,17.44-11.95,7.06-1.23,11.31,0,15.95,4.21,0,0,3.61,3.49,7,4.14s6.21.1,10.25,2.17c5.51,2.82,7.93,10.19,10.49,15.83,3.17,7,7.7,13.46,9.77,20.88s1,16.51-5.28,21c1.07-5.68,2-11.93-.38-17.07a14.9,14.9,0,0,1-.38,6.16c-1.16-3.34-2.4-6.78-4.82-9.36s-5.44-3.88-7.79-6.24c-3.46-3.47-5-8.76-9.25-11.27-4.37-2.62-9.9-1.32-15-1.29a28.74,28.74,0,0,1-22.33-10.76l1.27-.11A35.31,35.31,0,0,1,199.9,147.16Z"/><path class="cls-3" d="M168,200.17c1.95-6.38,5.36-12.21,7.5-18.52,2.08-6.15,2.94-12.72,5.7-18.59,3.72-7.9,10.67-18.13,21.5-17.57l.73.65a23.19,23.19,0,0,1,10.92,1.31l.16,8.43,2.08,1.83c-.87,1.67-1.7,3.29-2.49,4.88a54,54,0,0,1-2.76,9.29,24.13,24.13,0,0,1-5.2,7.9c-18.65,44.65-1.73,47.47-10.14,73.06l-5.28-14.65a26.08,26.08,0,0,1-10.45-11.26l-.93,4.64a26.93,26.93,0,0,1-7.29-16.63l-2.42,4.46C165.82,214,166.09,206.54,168,200.17Z"/><path class="cls-11" d="M199.85,198.54c-.29-.73-13.77-5.16-13.54,9,.22,13.79,14.05,10.68,14.06,10.28S199.85,198.54,199.85,198.54Z"/><path class="cls-12" d="M196,212.7c-.06,0-.24.17-.64.37a2.41,2.41,0,0,1-1.79.07c-1.47-.51-2.74-2.8-2.85-5.28a8,8,0,0,1,.6-3.45,2.82,2.82,0,0,1,1.77-1.88,1.22,1.22,0,0,1,1.43.64c.2.38.11.65.19.68s.29-.24.17-.81a1.58,1.58,0,0,0-.56-.85,1.87,1.87,0,0,0-1.34-.33,3.36,3.36,0,0,0-2.46,2.19,8.07,8.07,0,0,0-.76,3.86c.14,2.77,1.61,5.34,3.61,5.88a2.56,2.56,0,0,0,2.19-.41C196,213,196.07,212.72,196,212.7Z"/><path class="cls-10" d="M194.53,215.18a2.73,2.73,0,1,0,.64.19"/><path class="cls-3" d="M195.17,215.37a3.61,3.61,0,0,1,1.3,1.81,2.37,2.37,0,0,1-.48,2.18,2.41,2.41,0,0,1-4.28-1.23,2.35,2.35,0,0,1,.76-2.1,3.7,3.7,0,0,1,2.06-.85s-.22-.14-.65-.13a2.83,2.83,0,0,0-1.71.65,2.75,2.75,0,0,0-1,2.51,3,3,0,0,0,5.29,1.52,2.74,2.74,0,0,0,.46-2.68,2.81,2.81,0,0,0-1.09-1.45C195.43,215.37,195.19,215.33,195.17,215.37Z"/><path class="cls-13" d="M215.52,161.16c-.27.11-1.55-4.56-5.39-8.89S201.9,146,202,145.73a7.63,7.63,0,0,1,2.91,1.16,22.39,22.39,0,0,1,9.81,11.24A7.82,7.82,0,0,1,215.52,161.16Z"/><path class="cls-5" d="M262.8,261.24c-1.31-.34,15.18,76.89,15.18,76.89l27,39h25.82l7.41-5.74S324.39,343.91,317.88,334,285.83,267.17,262.8,261.24Z"/><path class="cls-5" d="M262.8,261.24,241.87,257c-5,19.18-31.59,17.49-46,0l-11.53,3.13c-15.43,4.54-19,6.27-19,6.27-11.23,4.39-18.22,16.45-21,24.81l27.53,76.34-7,46,118.67-.13-10.8-39,2.36-12.55L278.58,351c3.48-11.17-1.21-31.66-4.62-42.86l-3.72-16.24Z"/><g class="cls-14"><path d="M179.36,293.53s1.34,16,0,24S174.81,365,174.81,365l40.05,11.92,22-7.67-12.76,30.8-23.39,3.35-26.47-28.32-6.82-20.35,3.76-10.95Z"/></g><path class="cls-11" d="M261.46,388.37l-21.32-10.64,3.47-2,6.65,2.12c0,.3,6.18,3,8.46,2.41a5.88,5.88,0,0,0,3.53-2.62c.33-.62-7.84-4.79-7.84-4.79l-10.28-5.26-11,2.89-19.62,12.24-14.71-4.58c-.36.62-5.62,23.86-5.62,23.86s14.44,4.73,22.74,4c5.64-.47,10.48-4.39,13.29-7.18l2.52,1.35s9.22,4.49,13.14,4.67,1.38-3.5,1.38-3.5l-6.88-4.47-2.79-2.46,4.24,1.51s7.2,3.69,8.65,4.09c1.87.52,3.36.11,4.06-2.5s-14-11.23-14-11.23l14.33,6a8.1,8.1,0,0,0,4.23.61A3.4,3.4,0,0,0,261,391.1C262.11,388.46,261.46,388.37,261.46,388.37Z"/><path class="cls-12" d="M228.05,379.68a4.48,4.48,0,0,1,1.45-1.25,11.19,11.19,0,0,1,8.95-1.35,4.41,4.41,0,0,1,1.75.77,14.87,14.87,0,0,1-1.84-.41,12.92,12.92,0,0,0-8.68,1.3C228.67,379.29,228.1,379.74,228.05,379.68Z"/><path class="cls-12" d="M242.09,387.75a10.65,10.65,0,0,1-1.9-1.16,19.27,19.27,0,0,0-4.68-2.4,8.75,8.75,0,0,0-5.13-.11,18.18,18.18,0,0,0-2,.92,3.79,3.79,0,0,1,1.86-1.26,8.33,8.33,0,0,1,5.4-.05,16.35,16.35,0,0,1,4.74,2.59A8.31,8.31,0,0,1,242.09,387.75Z"/><path class="cls-12" d="M233.49,390.88c-.05.07-.45-.18-1.15-.43a6.53,6.53,0,0,0-5.56.61c-.63.39-1,.73-1,.67s.2-.47.83-1a5.6,5.6,0,0,1,2.86-1.15,5.67,5.67,0,0,1,3,.5C233.19,390.47,233.53,390.84,233.49,390.88Z"/><path class="cls-12" d="M239.25,397.22a13.73,13.73,0,0,1-4.78-4.64,15.94,15.94,0,0,1,2.47,2.24A15.67,15.67,0,0,1,239.25,397.22Z"/><path class="cls-5" d="M181.52,306.64c5.92-31.49-28.28-40.64-36.47-17.42,0,0-8.19,23.67-11.65,36.85-3.22,12.28-7,28-9.47,43.24-1.71,10.52,1.16,23,7.13,25.54,15.59,6.61,77.44,16.51,77.44,16.51l3.84-31.53L166.5,369s1.91-5.16-1.62-5.64l11.06-38.23Z"/><path class="cls-3" d="M164.88,363.35a2.53,2.53,0,0,1,.41.2,2.28,2.28,0,0,1,.48.3,2.69,2.69,0,0,1,.57.52,3.06,3.06,0,0,1,.77,2,5.22,5.22,0,0,1-.89,2.8l-.08-.22c3.72.67,8.85,1.79,14.88,3.24l20.37,5c3.82.9,7.53,1.73,11,2.4l.23,0,0,.23-2.84,22.58c-.37,2.76-.66,5-.87,6.56-.11.73-.19,1.32-.26,1.76a2.43,2.43,0,0,1-.12.6,4.64,4.64,0,0,1,0-.61c.05-.45.11-1,.18-1.77.17-1.58.42-3.81.72-6.58.67-5.65,1.59-13.52,2.66-22.6l.2.28c-3.48-.65-7.2-1.48-11-2.39-7.41-1.76-14.34-3.56-20.36-5.05s-11.12-2.66-14.83-3.4l-.2,0L166,369a5.13,5.13,0,0,0,.89-2.64,2.87,2.87,0,0,0-.66-1.91,2.94,2.94,0,0,0-.53-.53,2.67,2.67,0,0,0-.45-.33C165,363.45,164.87,363.37,164.88,363.35Z"/><path class="cls-3" d="M178.89,316.18a1.54,1.54,0,0,1-.09.5l-.36,1.38L177,323.14c-1.23,4.28-3,10.19-4.88,16.7s-3.72,12.4-5,16.66c-.65,2.06-1.19,3.76-1.58,5-.18.54-.33,1-.46,1.36s-.17.47-.19.46a1.54,1.54,0,0,1,.09-.49c.1-.38.22-.83.36-1.39l1.43-5.08c1.22-4.28,2.94-10.18,4.88-16.7s3.71-12.4,5-16.65c.65-2.07,1.19-3.77,1.58-5,.19-.54.34-1,.46-1.36A2.9,2.9,0,0,1,178.89,316.18Z"/><path class="cls-3" d="M180.66,296.5a39.85,39.85,0,0,0-.88-5,22.08,22.08,0,0,0-17-16,39.11,39.11,0,0,0-5.08-.58,6.17,6.17,0,0,1,1.39-.11,19.65,19.65,0,0,1,3.77.33,21.6,21.6,0,0,1,17.26,16.26,19.73,19.73,0,0,1,.56,3.75A6.16,6.16,0,0,1,180.66,296.5Z"/><path class="cls-3" d="M164.88,363.75c0,.08-.71-.11-1.82-.17a9.75,9.75,0,0,0-4.25.7,9.92,9.92,0,0,0-3.5,2.5c-.75.83-1.09,1.44-1.17,1.4a4,4,0,0,1,.89-1.64,8.71,8.71,0,0,1,3.59-2.74,8.8,8.8,0,0,1,4.47-.59A3.94,3.94,0,0,1,164.88,363.75Z"/><path class="cls-3" d="M166.06,368.18c0,.16-1.82.32-3.86,1.19s-3.44,2.06-3.54,1.94a9.25,9.25,0,0,1,7.4-3.13Z"/><path class="cls-3" d="M268.79,294.73a4,4,0,0,1,.36.6l.94,1.76c.41.77.91,1.71,1.42,2.84s1.16,2.38,1.73,3.83,1.27,3,1.87,4.73c.3.86.65,1.75.95,2.67s.59,1.89.9,2.88a87.87,87.87,0,0,1,2.82,13.09,79.3,79.3,0,0,1,.56,13.38c-.17,2.06-.27,4-.58,5.82-.14.91-.23,1.79-.4,2.62s-.34,1.63-.51,2.4c-.28,1.53-.72,2.87-1.05,4.07-.18.59-.32,1.15-.49,1.65s-.35.94-.5,1.36c-.29.77-.52,1.4-.7,1.87a4.1,4.1,0,0,1-.28.64,2.84,2.84,0,0,1,.18-.67c.15-.49.36-1.12.61-1.91.14-.41.29-.87.45-1.37s.29-1.06.45-1.65c.3-1.2.72-2.54,1-4.07.15-.76.31-1.56.48-2.39s.23-1.7.36-2.6c.29-1.8.37-3.75.53-5.79a81.72,81.72,0,0,0-.6-13.29,90.38,90.38,0,0,0-2.76-13c-.3-1-.59-1.93-.88-2.86s-.62-1.81-.92-2.67c-.57-1.73-1.23-3.3-1.8-4.74s-1.17-2.71-1.66-3.85-.95-2.09-1.33-2.87l-.86-1.8A2.91,2.91,0,0,1,268.79,294.73Z"/><path class="cls-3" d="M270.06,287.82c.13.08-.57,1.49-.93,3.38s-.26,3.46-.41,3.47a6.12,6.12,0,0,1-.1-3.57A6.29,6.29,0,0,1,270.06,287.82Z"/><g class="cls-14"><path d="M283.37,316.79c-1.29-5.07-3.7-9.77-6.1-14.42L271.42,291c-.37-.72-.85-1.52-1.64-1.68a1.89,1.89,0,0,0-2,1.75,5.45,5.45,0,0,0,.71,2.84,209.11,209.11,0,0,1,8.85,23.16c2.45,7.68,4.21,17.94,2.84,25.88C284.85,335.21,285.6,325.57,283.37,316.79Z"/></g><path class="cls-3" d="M247,337.58a1.46,1.46,0,0,1-.05.46c-.06.29-.13.74-.28,1.29a31,31,0,0,1-1.52,4.62,34.72,34.72,0,0,1-23.43,20.44,32.28,32.28,0,0,1-4.78.88c-.57.07-1,.07-1.32.09a1.8,1.8,0,0,1-.46,0,11.84,11.84,0,0,1,1.75-.29,37.79,37.79,0,0,0,4.72-1,35.73,35.73,0,0,0,23.18-20.22,38.25,38.25,0,0,0,1.67-4.53A14.22,14.22,0,0,1,247,337.58Z"/><path class="cls-10" d="M370.25,353,367.63,350s-19.17,8.62-25.69,12.26c-9.4,5.26-10.6,7.94-10.6,7.94l-1.25,6,4.43,3Z"/><path class="cls-3" d="M334.52,379.25h0l-4.44-3v0l1.24-6a7.52,7.52,0,0,1,1.79-2,49.31,49.31,0,0,1,8.83-6c6.44-3.61,25.5-12.18,25.69-12.27h0l2.64,2.95,0,0Zm-4.4-3,4.4,3L370.21,353l-2.59-2.9c-.66.3-19.31,8.7-25.67,12.25a50,50,0,0,0-8.82,5.94,7.86,7.86,0,0,0-1.77,2Z"/><path class="cls-10" d="M333.68,378.65s-1.31-12.75-9.61-16.36-33.62,9.36-34.16,9.54S238,405.25,238,405.25l2.85,3.5,46.69-5.67Z"/><path class="cls-2" d="M239.71,406.67l50.73-33s26.9-13.59,34.39-9.23,6.68,12.72,6.68,12.72l-48.9,28.05-40.5,4.92Z"/><path class="cls-10" d="M331.15,372.78S327,366,309.11,369a111.56,111.56,0,0,0-19.82,5.43l-48.51,33.09,1.68,2,77-28.68,12.09-2.4,1-2.12Z"/><polygon class="cls-5" points="236.86 411.44 281.45 381.41 326.64 374.57 333.48 377.84 371.2 351.09 373.02 353.17 313.06 401.59 300.2 398.5 286.19 408.36 238 413.46 236.86 411.44"/><path class="cls-3" d="M238,413.46s-.1-.15-.29-.47l-.89-1.53,0,0,0,0C241.75,408,258,397,281.34,381.25l0,0h0l45.18-6.88h.08l.06,0,6.84,3.27-.25,0,37.72-26.76.19-.14.16.18.49.56,1.32,1.52.19.21-.23.17-38.31,28.19-.13.1-.14-.08-7.51-4,.15,0-44.34,7.22.07,0-32.84,21c-3.88,2.48-6.9,4.4-9,5.71L238.81,413c-.53.33-.81.48-.81.48s.26-.19.78-.53l2.31-1.52,8.91-5.8,32.75-21.17,0,0h0l44.34-7.31h.08l.07,0,7.52,4-.26,0L372.86,353l0,.38-1.32-1.52-.49-.56.34,0-37.73,26.75-.12.08-.13-.06-6.84-3.28.15,0-45.2,6.8.08,0c-23.4,15.71-39.69,26.61-44.68,29.89l0-.05c.38.69.65,1.2.84,1.55Z"/><path class="cls-3" d="M281,382.14c.12-.08.56.4,1,1.07s.68,1.26.56,1.34-.57-.4-1-1.06S280.83,382.22,281,382.14Z"/><path class="cls-3" d="M327.41,377.71s-.12.14-.38.36l-1.16.95-4.33,3.41c-3.66,2.86-8.75,6.78-14.38,11.08-2.84,2.14-5.48,4.25-8,6l-6.71,4.66-4.55,3.1-1.25.83c-.29.18-.44.27-.45.25a2,2,0,0,1,.39-.34l1.2-.9,4.45-3.24,6.64-4.74c2.5-1.79,5.13-3.91,8-6,5.63-4.31,10.75-8.18,14.47-11l4.42-3.27L327,378A2.34,2.34,0,0,1,327.41,377.71Z"/><path class="cls-11" d="M343.33,379.46c-1.22,1.67-4.65,7.14-4.65,7.14a60.61,60.61,0,0,1-2.71,9.77,17.49,17.49,0,0,1-13.56,10.3c-6.87.86-18.33-3.53-18.33-3.53l-14.72-5.49s-3.31-2.83-.57-4.54c0,0-2.43-2.74,2.38-3.94s18,5,18,5-5.49-4.63-8.75-5.83-1.89-3.95.85-4.29,4.79.67,9.42,2.21,8.78,4.65,10.67,4.65.71-3.06-1-4.26c-7-4.79-4.64-6.38-4.64-6.38s.69-2.4,4.29-.86a94.34,94.34,0,0,1,9.85,5.55c4-.27,5.26-1.26,6.17-3.61a8.41,8.41,0,0,1,2.61-3.49l1.76-1.42a2.12,2.12,0,0,1,3.08,2.84Z"/><path class="cls-12" d="M306.63,401.35a97.3,97.3,0,0,1-9.23-4,98.69,98.69,0,0,1-9-4.45,98.05,98.05,0,0,1,9.24,4A97.63,97.63,0,0,1,306.63,401.35Z"/><path class="cls-12" d="M313.71,398.15a11.19,11.19,0,0,1-2.84-1.93,11.33,11.33,0,0,1-2.52-2.34,22.71,22.71,0,0,1,5.36,4.27Z"/><path class="cls-12" d="M331.36,390.75c.06,0,.23.33.18.94a2.85,2.85,0,0,1-3.41,2.5c-.6-.13-.88-.4-.85-.45s.36.06.9.08a2.82,2.82,0,0,0,3-2.19C331.31,391.11,331.28,390.76,331.36,390.75Z"/><path class="cls-12" d="M322,399.2c.06,0,0,.32-.25.7a2.82,2.82,0,0,1-3.28.86c-.42-.2-.6-.43-.56-.48a5.22,5.22,0,0,0,2.21.1C321.3,400.08,321.84,399.13,322,399.2Z"/><path class="cls-12" d="M313.4,403.61c.08.12-.67.63-1.71.47s-1.61-.86-1.5-.95.71.32,1.58.44S313.33,403.48,313.4,403.61Z"/><path class="cls-12" d="M335.67,382.1c.05,0,0,.5-.42,1.12a4.59,4.59,0,0,1-2.36,1.62A5.19,5.19,0,0,1,330,385c-.73-.19-1.07-.55-1-.59s.42.14,1.1.23a6.09,6.09,0,0,0,2.63-.28A5.25,5.25,0,0,0,335,383C335.42,382.49,335.58,382.07,335.67,382.1Z"/><path class="cls-3" d="M330.92,372.25a.88.88,0,0,1-.12-.21c-.07-.17-.17-.37-.28-.63a22,22,0,0,0-1.24-2.36,11.72,11.72,0,0,0-2.76-3.15,9.28,9.28,0,0,0-2.29-1.26,12.56,12.56,0,0,0-2.87-.68,20.67,20.67,0,0,0-3.28-.12c-.56.06-1.14.07-1.73.18s-1.18.2-1.78.34a61.11,61.11,0,0,0-7.59,2.37,181.42,181.42,0,0,0-16.9,7.44h0l-5.58,3.49C272,385.51,260.74,392.72,252.65,398l-9.57,6.32-2.6,1.73-.68.44-.24.13s.07-.07.21-.18l.65-.48,2.54-1.81c2.22-1.55,5.45-3.77,9.48-6.45,8.05-5.39,19.29-12.65,31.8-20.51l5.59-3.49h0a171.9,171.9,0,0,1,17-7.41,60.62,60.62,0,0,1,7.66-2.34c.61-.14,1.22-.22,1.81-.33s1.2-.11,1.78-.17a20,20,0,0,1,3.33.16,13.18,13.18,0,0,1,2.94.73,9.85,9.85,0,0,1,2.35,1.33,11.57,11.57,0,0,1,2.75,3.27A16.63,16.63,0,0,1,330.92,372.25Z"/><path class="cls-3" d="M330.71,373.71a1.92,1.92,0,0,1-.3-.36,6.17,6.17,0,0,0-.83-1,12.11,12.11,0,0,0-4-2.67,22.18,22.18,0,0,0-6.95-1.65,51.11,51.11,0,0,0-8.82.45,73.09,73.09,0,0,0-15.52,4.11c-1.92.74-3.46,1.4-4.51,1.87l-1.22.54a2.2,2.2,0,0,1-.43.17,9.08,9.08,0,0,1,1.56-.9c1-.52,2.55-1.23,4.47-2A66.26,66.26,0,0,1,309.75,368a48.24,48.24,0,0,1,8.92-.41,21.45,21.45,0,0,1,7.07,1.78,11.74,11.74,0,0,1,4,2.87,5.48,5.48,0,0,1,.77,1.1Q330.74,373.7,330.71,373.71Z"/><path class="cls-3" d="M290.44,380c-.12.1-1-.84-1.59-2.2a4.67,4.67,0,0,1-.71-2.61,14.15,14.15,0,0,1,1.18,2.39A14.6,14.6,0,0,1,290.44,380Z"/><path class="cls-2" d="M24,339.81,39,413.76H169.77a2.61,2.61,0,0,0,2.61-2.61h0a2.61,2.61,0,0,0-2.61-2.61H143.45l-14-68.77a2.85,2.85,0,0,0-2.77-2.29l-99.93-1.09A2.85,2.85,0,0,0,24,339.81Z"/><path class="cls-3" d="M24,339.81s0-.07,0-.22a2.8,2.8,0,0,1,0-.67,2.87,2.87,0,0,1,1.38-2.16,2.68,2.68,0,0,1,.87-.34,4.27,4.27,0,0,1,1-.07l2.36,0,5.88.05,37.78.36,26.34.26,14.76.15,7.74.08,3.95.05c.34,0,.66,0,1,0a3.25,3.25,0,0,1,1,.29,3,3,0,0,1,1.43,1.51,4.13,4.13,0,0,1,.27,1l.21,1c.13.66.27,1.33.4,2,.28,1.33.55,2.68.83,4q.83,4.06,1.67,8.23,1.69,8.33,3.46,17c2.36,11.59,4.81,23.65,7.34,36.08l-.18-.15h25.89a5,5,0,0,1,1,.06,2.8,2.8,0,0,1,.75,5.19,2.89,2.89,0,0,1-1.23.33H100.41L39,413.9h-.12l0-.11c-4.6-22.73-8.35-41.22-10.94-54-1.29-6.4-2.29-11.39-3-14.78-.33-1.68-.59-3-.76-3.85s-.25-1.32-.25-1.32.11.45.29,1.31.45,2.16.8,3.85c.7,3.38,1.73,8.36,3.05,14.76,2.62,12.81,6.41,31.29,11.06,54l-.13-.11,61.38,0h69.45a2.38,2.38,0,0,0,1.07-.29,2.43,2.43,0,0,0-.65-4.51,4.13,4.13,0,0,0-.94-.06h-26l0-.14c-2.52-12.43-5-24.49-7.32-36.09q-1.77-8.69-3.45-17c-.57-2.77-1.12-5.51-1.67-8.22-.28-1.36-.55-2.7-.82-4-.13-.67-.27-1.34-.4-2l-.21-1a4,4,0,0,0-.25-.95,2.76,2.76,0,0,0-1.28-1.35,2.88,2.88,0,0,0-.91-.26c-.3,0-.65,0-1,0l-3.95-.05-7.74-.09-14.76-.17L73.2,337l-37.78-.46-5.88-.08-2.36,0a4.73,4.73,0,0,0-1,.06,2.73,2.73,0,0,0-.84.33,2.82,2.82,0,0,0-1.39,2.1A3.76,3.76,0,0,0,24,339.81Z"/><path class="cls-10" d="M84.21,373.66a4.32,4.32,0,1,1-4.32-4.32A4.32,4.32,0,0,1,84.21,373.66Z"/><path class="cls-3" d="M24.08,340.41h6.86l18.7.09,61.67.43,8.92.07,2.19,0a6.13,6.13,0,0,1,1.12.07,3.13,3.13,0,0,1,2.39,2.23c.16.72.29,1.41.43,2.11,1.1,5.57,2.17,10.94,3.19,16.06l5.37,27.2c1.52,7.74,2.75,14,3.6,18.35.41,2.16.73,3.84,1,5,.1.56.18,1,.24,1.3s.07.44.07.44a3.59,3.59,0,0,1-.11-.43c-.06-.31-.16-.74-.28-1.3-.23-1.15-.58-2.82-1-5-.88-4.34-2.14-10.6-3.71-18.33l-5.45-27.18c-1-5.12-2.1-10.49-3.21-16.06-.14-.69-.27-1.41-.42-2.09a2.78,2.78,0,0,0-2.12-2,5.94,5.94,0,0,0-1-.06l-2.19,0-8.92-.07-61.68-.54-18.69-.2-5.08-.08-1.32,0A4.13,4.13,0,0,1,24.08,340.41Z"/></g></svg>